<svg width="18" height="19" viewBox="0 0 18 19" fill="none" xmlns="http://www.w3.org/2000/svg">
<path d="M16.874 17.85V1.35001M0.75 3.01601V16.18C0.750768 16.4499 0.826977 16.7141 0.97002 16.9429C1.11306 17.1717 1.31724 17.356 1.55949 17.4749C1.80173 17.5938 2.0724 17.6426 2.34091 17.6157C2.60942 17.5889 2.86508 17.4875 3.079 17.323L12.192 10.235C12.3725 10.0941 12.517 9.91237 12.6135 9.70476C12.7101 9.49715 12.756 9.26959 12.7475 9.04077C12.739 8.81196 12.6764 8.58842 12.5647 8.38854C12.453 8.18866 12.2954 8.01815 12.105 7.89101L2.992 1.81601C2.77446 1.67295 2.52234 1.59125 2.26224 1.5795C2.00214 1.56776 1.74369 1.62641 1.51414 1.74928C1.28459 1.87214 1.09244 2.05466 0.957954 2.27761C0.823467 2.50055 0.751624 2.75565 0.75 3.01601Z" stroke="white" stroke-width="1.5" stroke-linecap="round" stroke-linejoin="round"/>
</svg>
