<svg width="19" height="19" viewBox="0 0 19 19" fill="none" xmlns="http://www.w3.org/2000/svg">
<path d="M1.5 4.60001C1.5 3.18601 1.5 2.47901 1.94 2.04001C2.378 1.60001 3.085 1.60001 4.5 1.60001C5.915 1.60001 6.621 1.60001 7.06 2.04001C7.5 2.47801 7.5 3.18501 7.5 4.60001V14.6C7.5 16.014 7.5 16.721 7.06 17.16C6.622 17.6 5.915 17.6 4.5 17.6C3.085 17.6 2.379 17.6 1.94 17.16C1.5 16.722 1.5 16.015 1.5 14.6V4.60001ZM11.5 4.60001C11.5 3.18601 11.5 2.47901 11.94 2.04001C12.378 1.60001 13.085 1.60001 14.5 1.60001C15.915 1.60001 16.621 1.60001 17.06 2.04001C17.5 2.47801 17.5 3.18501 17.5 4.60001V14.6C17.5 16.014 17.5 16.721 17.06 17.16C16.621 17.6 15.914 17.6 14.5 17.6C13.086 17.6 12.379 17.6 11.94 17.16C11.5 16.722 11.5 16.015 11.5 14.6V4.60001Z" stroke="white" stroke-width="1.5" stroke-linecap="round" stroke-linejoin="round"/>
</svg>
