<svg width="14" height="17" viewBox="0 0 14 17" fill="none" xmlns="http://www.w3.org/2000/svg">
<path d="M1 3.60052V13.6005M12.028 1.86752C12.1165 1.79763 12.2228 1.75406 12.3349 1.74183C12.4469 1.72959 12.5602 1.74917 12.6616 1.79833C12.7631 1.84749 12.8486 1.92424 12.9085 2.01978C12.9683 2.11532 13 2.22579 13 2.33852V14.8625C12.9999 14.9752 12.968 15.0855 12.9081 15.1809C12.8482 15.2763 12.7626 15.3529 12.6612 15.4019C12.5598 15.451 12.4466 15.4705 12.3346 15.4582C12.2226 15.4459 12.1164 15.4024 12.028 15.3325L4.097 9.07152C4.02584 9.01536 3.96832 8.9438 3.92878 8.86223C3.88924 8.78065 3.8687 8.69118 3.8687 8.60052C3.8687 8.50987 3.88924 8.42039 3.92878 8.33881C3.96832 8.25724 4.02584 8.18568 4.097 8.12952L12.028 1.86752Z" stroke="white" stroke-width="1.5" stroke-linecap="round" stroke-linejoin="round"/>
</svg>
